# xmcd CD database file
#
# Track frame offsets:
#	150
#	22740
#	41832
#	64413
#
# Disc length: 1110 seconds
#
# Revision: 1
# Processed by: cddbd v1.5.2PL0 Copyright (c) Steve Scherf et al.
# Submitted via: CDex 1.70beta2
#
DISCID=2e045404
DTITLE=ほしな歌唄(CV.水樹奈々) - 迷宮バタフライ
DYEAR=2007
DGENRE=Anime
TTITLE0=迷宮バタフライ
TTITLE1=Blue Moon
TTITLE2=迷宮バタフライ (Vocal off)
TTITLE3=Blue Moon (Vocal off)
EXTD=YEAR: 2007
EXTT0=
EXTT1=
EXTT2=
EXTT3=
PLAYORDER=
